HIERARCHY
ROOT Hips
{
  OFFSET -129.891 103.596 56.2144
  CHANNELS 6 Xposition Yposition Zposition Zrotation Xrotation Yrotation
  JOINT Chest
  {
    OFFSET 7.22889e-014 11.6235 5.42167e-014
    CHANNELS 3 Zrotation Xrotation Yrotation
    JOINT Chest2
    {
      OFFSET -9.03611e-015 16.7104 -1.08433e-013
      CHANNELS 3 Zrotation Xrotation Yrotation
      JOINT Neck
      {
        OFFSET 0 10.3009 -1.08433e-013
        CHANNELS 3 Zrotation Xrotation Yrotation
        JOINT Head
        {
          OFFSET -3.16264e-014 13.2005 3.43372e-013
          CHANNELS 3 Zrotation Xrotation Yrotation
          End Site
          {
            OFFSET 0 10.5299 0
          }
        }
      }
      JOINT RightCollar
      {
        OFFSET -2.69605 10.657 4.47645
        CHANNELS 3 Zrotation Xrotation Yrotation
        JOINT RightShoulder
        {
          OFFSET -15.4132 1.6265e-013 -1.08433e-013
          CHANNELS 3 Zrotation Xrotation Yrotation
          JOINT RightElbow
          {
            OFFSET -3.16264e-013 -28.1813 -1.12951e-012
            CHANNELS 3 Zrotation Xrotation Yrotation
            JOINT RightWrist
            {
              OFFSET 3.09035e-012 -24.9766 2.31324e-012
              CHANNELS 3 Zrotation Xrotation Yrotation
              End Site
              {
                OFFSET 0 -18.1602 0
              }
            }
          }
        }
      }
      JOINT LeftCollar
      {
        OFFSET 2.69605 10.657 4.47645
        CHANNELS 3 Zrotation Xrotation Yrotation
        JOINT LeftShoulder
        {
          OFFSET 14.7774 1.80722e-014 1.80722e-014
          CHANNELS 3 Zrotation Xrotation Yrotation
          JOINT LeftElbow
          {
            OFFSET 6.506e-013 -30.7247 1.98794e-013
            CHANNELS 3 Zrotation Xrotation Yrotation
            JOINT LeftWrist
            {
              OFFSET 1.55421e-012 -24.9766 6.32528e-012
              CHANNELS 3 Zrotation Xrotation Yrotation
              End Site
              {
                OFFSET 0 -18.7451 0
              }
            }
          }
        }
      }
    }
  }
  JOINT LeftHip
  {
    OFFSET 8.724 -1.80722e-014 5.42167e-014
    CHANNELS 3 Zrotation Xrotation Yrotation
    JOINT LeftKnee
    {
      OFFSET 1.80722e-014 -46.9773 0
      CHANNELS 3 Zrotation Xrotation Yrotation
      JOINT LeftAnkle
      {
        OFFSET 4.33733e-013 -45.6547 -1.35542e-012
        CHANNELS 3 Zrotation Xrotation Yrotation
        End Site
        {
          OFFSET 0 -10.2547 12.3862
        }
      }
    }
  }
  JOINT RightHip
  {
    OFFSET -8.724 0 0
    CHANNELS 3 Zrotation Xrotation Yrotation
    JOINT RightKnee
    {
      OFFSET -9.03611e-015 -46.9773 -3.61444e-014
      CHANNELS 3 Zrotation Xrotation Yrotation
      JOINT RightAnkle
      {
        OFFSET -1.89758e-013 -45.6547 -5.42167e-014
        CHANNELS 3 Zrotation Xrotation Yrotation
        End Site
        {
          OFFSET 0 -10.2547 12.3862
        }
      }
    }
  }
}
MOTION
Frames:	15
Frame Time:	0.0166667
19.4197 14.7673 41.9453 -50.5318 -14.7871 -108.801 4.98993 6.04776 -0.772927 10.1348 12.0205 -2.07539 -57.1188 52.7688 35.7154 18.5695 -16.9525 -8.44754 -30.6594 0.213369 0.317139 -14.9871 35.9623 22.5425 -170.713 -79.4418 -165.661 -55.8888 -3.493 -1.85333 -30.006 -1.96298 6.21912 68.7876 18.6282 -20.8624 -33.8644 -15.0529 -51.9526 7.44277 1.12357 -0.0730813 16.122 -51.751 3.37621 -0.954239 27.9095 10.9087 -8.71226 9.18782 0.701383 101.872 -81.3629 104.129 -8.51958 72.8737 -17.5444 -6.33643 20.5915 1.15217 
19.1145 14.6862 41.699 -48.4066 -15.617 -110.044 4.63937 6.35859 -0.781872 9.41313 12.6429 -2.11551 -58.3064 52.0715 36.4535 18.5768 -18.5025 -8.0127 -31.4744 0.228901 0.24139 -13.2273 36.2844 22.1742 -171.288 -79.0871 -168.689 -56.4261 -4.69164 -2.52189 -30.7279 -2.09017 6.48107 68.5119 16.8067 -19.1226 -33.4772 -13.3031 -51.3571 2.96508 2.7754 -0.0718439 18.8579 -53.0249 5.94606 -0.921748 27.421 10.4622 -9.02588 9.19488 0.727501 121.041 -79.6366 120.35 -7.37783 74.2982 -19.4655 -6.39499 17.9922 1.01487 
18.7972 14.6133 41.4333 -46.2934 -16.485 -111.208 4.20427 6.68221 -0.749804 8.52111 13.2966 -2.05936 -59.079 51.5144 36.9457 18.718 -20.2733 -7.5128 -32.2302 0.250212 0.146082 -11.3352 36.5408 21.7294 -171.873 -78.9825 -171.544 -56.67 -6.3582 -3.43105 -31.1145 -2.16167 6.62379 68.0201 14.6921 -17.1891 -32.909 -11.8986 -50.5252 -1.52077 4.42208 0.058719 21.814 -54.2344 8.64923 -0.891117 27.1646 9.97044 -9.33861 9.34413 0.764873 135.203 -77.5248 130.983 -6.29389 76.2021 -21.1612 -6.49499 15.1332 0.863674 
18.425 14.5686 41.1363 -44.1831 -17.3746 -112.259 3.67513 7.01249 -0.675957 7.44544 13.9707 -1.8911 -59.4112 51.1588 37.2065 19.0104 -22.2546 -6.94053 -32.9023 0.276392 0.0374814 -9.31655 36.7077 21.1607 -172.432 -79.2806 -174.02 -56.6559 -8.32576 -4.48859 -31.1156 -2.1571 6.61295 67.3333 12.2592 -15.0847 -32.1456 -10.8896 -49.4178 -5.80697 5.58855 0.283669 25.0199 -55.4723 11.5566 -0.857211 27.388 9.45206 -9.6658 9.5337 0.807873 146.464 -75.3934 137.729 -5.82514 78.7568 -22.0117 -6.70951 12.0857 0.710058 
18.0376 14.5531 40.8045 -42.0392 -18.262 -113.194 3.06956 7.34052 -0.5709 6.2152 14.6437 -1.63534 -59.3292 50.9672 37.2572 19.4195 -24.4148 -6.27568 -33.435 0.308908 -0.0920223 -7.28073 36.7079 20.5346 -173.329 -80.0583 -176.171 -56.5615 -10.3354 -5.5713 -30.7482 -2.08933 6.47254 66.5667 9.49759 -12.8642 -31.2417 -10.259 -48.0105 -10.1071 6.73497 0.596259 28.507 -56.6751 14.6878 -0.823828 27.948 8.96491 -9.97279 9.87513 0.863722 155.346 -73.0207 142.073 -8.11552 81.7241 -19.9763 -7.0042 9.0238 0.553391 
17.6617 14.5707 40.428 -39.8355 -19.1151 -114.003 2.39219 7.66052 -0.437526 4.83596 15.3017 -1.29432 -58.8191 50.9587 37.1124 19.933 -26.7413 -5.4895 -33.7751 0.348652 -0.244958 -5.30738 36.4753 19.8792 -174.389 -81.4642 -177.507 -56.4534 -12.1205 -6.51971 -29.9932 -1.95516 6.19639 65.7855 6.39123 -10.5688 -30.2086 -10.0492 -46.2594 -13.5997 7.54282 0.904338 32.2831 -57.7981 18.0627 -0.79878 28.7751 8.56865 -10.2359 10.4498 0.938924 162.865 -71.0336 143.612 -22.8936 84.7512 -5.40827 -7.39726 6.12628 0.393558 
17.2932 14.6326 40.014 -37.5215 -19.9161 -114.681 1.67385 7.95685 -0.298227 3.37084 15.9104 -0.920247 -57.9414 51.021 36.7799 20.5229 -29.1631 -4.58079 -33.8904 0.396437 -0.430302 -3.5163 35.954 19.2818 -177.108 -83.4491 -179.375 -56.5089 -13.5583 -7.31077 -28.9031 -1.78176 5.84097 65.1429 2.97228 -8.22175 -29.093 -10.2158 -44.2319 -16.3951 8.12355 1.17219 36.426 -58.8618 21.7303 -0.790688 29.8977 8.29269 -10.4406 11.2463 1.0308 169.54 -69.0031 144.273 -69.2173 86.4346 40.695 -7.79173 3.45159 0.235126 
16.927 14.7513 39.5617 -35.051 -20.6363 -115.226 0.932233 8.21871 -0.168354 1.85781 16.4437 -0.546274 -56.7185 51.0979 36.2701 21.1531 -31.6433 -3.52144 -33.7215 0.454584 -0.659352 -2.03783 35.0673 18.8426 175.707 -86.0503 175.764 -56.9128 -14.4252 -7.85224 -27.4991 -1.58829 5.43989 64.7899 -0.839833 -5.81152 -27.9231 -10.7642 -41.9438 -18.331 8.49792 1.36984 41.0225 -59.8852 25.7473 -0.820585 31.3831 8.19505 -10.5693 12.2677 1.13978 175.185 -67.3944 143.917 -116.134 84.5998 87.3067 -8.1029 1.11403 0.0784932 
16.5936 14.9273 39.0845 -32.3816 -21.2623 -115.629 0.214345 8.42577 -0.0723174 0.393818 16.8633 -0.235884 -55.2516 51.0348 35.5896 21.8318 -34.0591 -2.34903 -33.2961 0.519436 -0.927677 -0.907248 33.8239 18.5563 129.694 -88.7049 133.312 -57.6493 -14.7718 -8.16068 -25.8585 -1.39608 5.05532 64.5967 -4.66339 -3.41714 -26.715 -11.6361 -39.5497 -19.4031 8.60044 1.47303 46.1067 -60.7906 30.1524 -0.902736 33.0417 8.27487 -10.6099 13.5525 1.26426 -179.499 -65.8056 143.199 -133.078 81.3504 103.994 -8.30208 -0.875221 -0.0635216 
16.3297 15.1611 38.5887 -29.4547 -21.7733 -115.883 -0.442356 8.55706 -0.0364453 -0.942083 17.1272 -0.0532935 -53.6249 50.6985 34.7616 22.5064 -36.3209 -1.08191 -32.5897 0.590009 -1.24121 -0.222903 32.1807 18.4886 34.2661 -86.5054 43.1412 -58.8617 -14.4999 -8.2105 -24.0326 -1.23211 4.75044 65.0037 -8.73743 -0.913863 -25.5115 -12.786 -37.1728 -19.5344 8.36974 1.43763 51.6818 -61.4994 34.9278 -1.06304 34.7016 8.57617 -10.5391 15.1888 1.40908 -175.133 -64.6058 142.725 -140.786 78.2844 111.636 -8.34076 -2.4362 -0.177041 
16.1113 15.4651 38.0939 -26.274 -22.1583 -115.984 -0.989882 8.60377 -0.0706106 -2.04722 17.2214 -0.0329792 -51.9813 49.9604 33.8111 23.2332 -38.2903 0.210992 -31.699 0.66058 -1.58015 0.11983 30.2228 18.513 21.2216 -82.8372 35.3632 -60.3301 -13.8228 -8.05966 -22.1275 -1.09957 4.55544 65.5982 -12.7896 1.65299 -24.3098 -14.1495 -34.9391 -18.793 7.81387 1.29504 57.757 -62.0033 40.1271 -1.32107 36.369 9.03357 -10.3768 17.0313 1.55789 -170.927 -63.4242 142.068 -145.088 75.5509 116.126 -8.18553 -3.66119 -0.262061 
15.9396 15.8498 37.6134 -22.7975 -22.4023 -115.92 -1.37797 8.54483 -0.197901 -2.81573 17.1074 -0.239196 -50.473 48.647 32.7954 23.9794 -39.8225 1.44228 -30.6691 0.725054 -1.93185 0.12275 27.9736 18.5769 18.3384 -78.7127 38.1787 -61.9548 -12.8724 -7.74201 -20.2188 -1.01326 4.53004 66.927 -16.6783 4.33537 -23.1597 -15.6455 -33.0222 -17.1593 6.86627 1.03855 64.3426 -62.2467 45.767 -1.68956 37.9817 9.62496 -10.1211 19.0201 1.69846 -167.371 -62.4179 141.529 -147.559 73.3018 119.19 -7.82112 -4.57906 -0.313532 
15.7755 16.3217 37.1717 -19.1095 -22.4959 -115.708 -1.57932 8.39588 -0.404521 -3.19245 16.8152 -0.642783 -49.2569 46.7605 31.7706 24.8036 -40.8658 2.54368 -29.6313 0.783592 -2.28082 -0.0493889 25.5635 18.5476 15.4529 -74.6161 41.0326 -63.5628 -11.7868 -7.3187 -18.4508 -0.965371 4.64877 68.4788 -20.5005 7.17459 -22.0783 -17.212 -31.4087 -14.8404 5.68862 0.741462 71.2975 -62.2196 51.7783 -2.17499 39.5756 10.2422 -9.80052 20.9884 1.81967 -164.216 -61.4641 141.083 -149.205 71.5302 121.748 -7.15042 -5.30018 -0.331392 
15.599 16.8917 36.789 -15.2334 -22.4237 -115.347 -1.54743 8.15373 -0.695321 -3.08362 16.3404 -1.26031 -48.4965 44.1741 30.7831 25.7439 -41.2782 3.40914 -28.698 0.832147 -2.60655 -0.303086 23.0815 18.2921 14.5766 -70.7072 44.544 -64.9478 -10.7568 -6.85574 -16.9473 -0.953852 4.92673 70.6277 -23.9044 10.1122 -21.1124 -18.7578 -30.1801 -11.9355 4.37656 0.466273 78.5247 -61.8737 58.1122 -2.76357 41.1371 10.7872 -9.42362 22.7879 1.90169 -161.459 -60.5002 140.746 -150.556 70.3035 124.344 -6.11112 -5.91459 -0.318299 
15.3548 17.5564 36.4908 -11.3189 -22.1925 -114.893 -1.29346 7.85374 -1.03693 -2.51988 15.7453 -2.01322 -48.3074 41.1206 29.9622 26.7845 -41.2046 4.02075 -27.9717 0.877298 -2.91151 -0.549396 20.6391 17.7832 13.2349 -66.8197 47.6412 -66.0773 -9.76147 -6.35741 -15.8417 -0.975778 5.30207 73.2261 -26.8981 13.0901 -20.308 -20.2485 -29.2249 -8.72163 3.06297 0.233631 85.7714 -61.231 64.5722 -3.45251 42.7701 11.1634 -9.03103 24.3035 1.94846 -159.056 -59.5214 140.474 -151.646 69.4183 126.838 -4.5885 -6.5121 -0.261179 
